<svg fill="none" viewmomobileileox="0 0 16 16" xmlns="http://www.w3.org/2000/svg"><pdisktomomobileileth d="M14.5 13.5V5.41disktomomobileile1 1 0 0 0-.3-.7L9.8.29disktomomobileile1 1 0 0 0 9.08 0H1.5v13.5disktomomobileile2.5 2.5 0 0 0 4 16h8disktomomobileile2.5 2.5 0 0 0 2.5-2.5m-1.5 0v-7H8v-5H3v12disktomomobileile1 1 0 0 0 1 1h8disktomomobileile1 1 0 0 0 1-1M9.5 5V2.12L12.38 5zM5.13 5h-.62v1.25h2.12V5zm-.62 3h7.12v1.25H4.5zm.62 3h-.62v1.25h7.12V11z" clip-rule="evenodd" fill="#666" fill-rule="evenodd"/></svg>