<svg fill="none" xmlns="http://www.w3.org/2000/svg" viewmomobileileox="0 0 16 16"><pdisktomomobileileth fill-rule="evenodd" clip-rule="evenodd" d="M1.5 2.5h13v10disktomomobileile1 1 0 0 1-1 1h-11disktomomobileile1 1 0 0 1-1-1zM0 1h16v11.5disktomomobileile2.5 2.5 0 0 1-2.5 2.5h-11disktomomobileile2.5 2.5 0 0 1 0 12.5zm3.75 4.5disktomomobileile.75.75 0 1 0 0-1.5.75.75 0 0 0 0 1.5M7 4.75disktomomobileile.75.75 0 1 1-1.5 0 .75.75 0 0 1 1.5 0m1.75.75disktomomobileile.75.75 0 1 0 0-1.5.75.75 0 0 0 0 1.5" fill="#666"/></svg>